<svg xmlns="http://www.w3.org/2000/svg" viewBox="0 0 1024 1024" fill="none" role="img" aria-label="VouchEdge VE"
  data-craft-level="2"
  data-mark-core="ve"
  data-letter-font="OrbitronBlack"
  data-letter-style="filled-type"
  data-material="night-city"
  data-palette="socialize-ref"
  data-texture="painterly-grain"
  data-optical-letter-height="131"
  data-optical-gap="18"
  data-optical-margin="86"
  data-optical-max-x="674"
  data-no-gimmick="1">
  <!--
    VouchEdge master mark — craft level 2
    craft:level=2 markCore=ve material=night-city palette=socialize-ref
    letterFont=OrbitronBlack — geometric white VE over violet/cyan night-city wash.
    Reference: SOCIALIZE night-city reel (cyan trail · magenta haze · amber spark).
  -->
  <defs>
    <!-- Plate: deep indigo / violet night -->
    <linearGradient id="ve-plate" x1="120" y1="0" x2="900" y2="1024" gradientUnits="userSpaceOnUse">
      <stop offset="0%" stop-color="#2B1F54"/>
      <stop offset="40%" stop-color="#1A1035"/>
      <stop offset="100%" stop-color="#0B0618"/>
    </linearGradient>
    <!-- Magenta haze (upper right) -->
    <radialGradient id="ve-haze-magenta" cx="78%" cy="22%" r="48%">
      <stop offset="0%" stop-color="#C026D3" stop-opacity="0.28"/>
      <stop offset="55%" stop-color="#7C3AED" stop-opacity="0.12"/>
      <stop offset="100%" stop-color="#0B0618" stop-opacity="0"/>
    </radialGradient>
    <!-- Cyan city core wash -->
    <radialGradient id="ve-glow" cx="42%" cy="55%" r="55%">
      <stop offset="0%" stop-color="#22D3EE" stop-opacity="0.18"/>
      <stop offset="40%" stop-color="#0891B2" stop-opacity="0.10"/>
      <stop offset="100%" stop-color="#0B0618" stop-opacity="0"/>
    </radialGradient>
    <!-- Amber spark (mech warmth from ref) -->
    <radialGradient id="ve-amber" cx="62%" cy="58%" r="28%">
      <stop offset="0%" stop-color="#F59E0B" stop-opacity="0.22"/>
      <stop offset="100%" stop-color="#F59E0B" stop-opacity="0"/>
    </radialGradient>

    <!-- Shield: violet glass + cyan rim -->
    <linearGradient id="ve-shield-fill" x1="512" y1="170" x2="520" y2="860" gradientUnits="userSpaceOnUse">
      <stop offset="0%" stop-color="#4C1D95"/>
      <stop offset="45%" stop-color="#2E1065"/>
      <stop offset="100%" stop-color="#1E1B4B"/>
    </linearGradient>
    <linearGradient id="ve-shield-inner" x1="360" y1="220" x2="680" y2="760" gradientUnits="userSpaceOnUse">
      <stop offset="0%" stop-color="#67E8F9" stop-opacity="0.18"/>
      <stop offset="40%" stop-color="#A855F7" stop-opacity="0.10"/>
      <stop offset="100%" stop-color="#0B0618" stop-opacity="0.45"/>
    </linearGradient>
    <linearGradient id="ve-shield-stroke" x1="260" y1="160" x2="760" y2="860" gradientUnits="userSpaceOnUse">
      <stop offset="0%" stop-color="#E0F7FA"/>
      <stop offset="35%" stop-color="#67E8F9"/>
      <stop offset="70%" stop-color="#22D3EE"/>
      <stop offset="100%" stop-color="#A855F7"/>
    </linearGradient>

    <!-- SOCIALIZE-style white type -->
    <linearGradient id="ve-letter" x1="360" y1="400" x2="680" y2="600" gradientUnits="userSpaceOnUse">
      <stop offset="0%" stop-color="#FFFFFF"/>
      <stop offset="70%" stop-color="#F8FAFC"/>
      <stop offset="100%" stop-color="#CFFAFE"/>
    </linearGradient>
    <linearGradient id="ve-letter-shade" x1="512" y1="410" x2="512" y2="590" gradientUnits="userSpaceOnUse">
      <stop offset="0%" stop-color="#FFFFFF" stop-opacity="0.20"/>
      <stop offset="100%" stop-color="#22D3EE" stop-opacity="0.12"/>
    </linearGradient>

    <filter id="ve-grain" x="-10%" y="-10%" width="120%" height="120%" filterUnits="objectBoundingBox">
      <feTurbulence type="fractalNoise" baseFrequency="1.25" numOctaves="3" seed="19" result="n"/>
      <feColorMatrix type="matrix" values="0 0 0 0 0.7  0 0 0 0 0.55  0 0 0 0 0.9  0 0 0 0.045 0" in="n" result="g"/>
      <feBlend in="SourceGraphic" in2="g" mode="soft-light"/>
    </filter>
    <filter id="ve-letter-depth" x="-35%" y="-35%" width="170%" height="170%">
      <feDropShadow dx="0" dy="0" stdDeviation="6" flood-color="#22D3EE" flood-opacity="0.45"/>
      <feDropShadow dx="0" dy="2" stdDeviation="1.5" flood-color="#0B0618" flood-opacity="0.55"/>
    </filter>

    <clipPath id="ve-shield-clip">
      <path d="M512 168 C602 168 718 222 760 274 V530 C760 668 652 798 512 868 C372 798 264 668 264 530 V274 C306 222 422 168 512 168 Z"/>
    </clipPath>
  </defs>

  <rect class="ve-mark-tile" width="1024" height="1024" rx="224" fill="url(#ve-plate)"/>
  <rect width="1024" height="1024" rx="224" fill="url(#ve-haze-magenta)"/>
  <ellipse class="ve-mark-glow" cx="430" cy="560" rx="340" ry="300" fill="url(#ve-glow)"/>
  <ellipse cx="620" cy="580" rx="200" ry="170" fill="url(#ve-amber)"/>
  <rect class="ve-mark-grain" width="1024" height="1024" rx="224" fill="url(#ve-plate)" filter="url(#ve-grain)" opacity="0.5"/>

  <path
    class="ve-mark-shield"
    d="M512 168 C602 168 718 222 760 274 V530 C760 668 652 798 512 868 C372 798 264 668 264 530 V274 C306 222 422 168 512 168 Z"
    fill="url(#ve-shield-fill)"
    stroke="url(#ve-shield-stroke)"
    stroke-width="30"
    stroke-linejoin="round"
  />
  <g clip-path="url(#ve-shield-clip)">
    <path d="M512 168 C602 168 718 222 760 274 V530 C760 668 652 798 512 868 C372 798 264 668 264 530 V274 C306 222 422 168 512 168 Z" fill="url(#ve-shield-inner)"/>
    <ellipse cx="512" cy="245" rx="170" ry="56" fill="#E0F7FA" opacity="0.12"/>
  </g>

  <g class="ve-mark-letters ve-mark-identity ve-mark-optical" aria-label="VE" filter="url(#ve-letter-depth)">
    <path class="letter-v" d="M448.95 563.52L425.47 563.52L349.57 432.48L382.33 432.48L437.3 527.67L492.26 432.48L524.84 432.48" fill="url(#ve-letter)"/>
    <path class="letter-e" d="M674.43 563.52L553.4 563.52L553.4 432.48L674.43 432.48L674.43 460.87L581.97 460.87L581.97 483.80L656.41 483.80L656.41 512.20L581.97 512.20L581.97 535.13L674.43 535.13" fill="url(#ve-letter)"/>
    <path class="letter-v" d="M448.95 563.52L425.47 563.52L349.57 432.48L382.33 432.48L437.3 527.67L492.26 432.48L524.84 432.48" fill="url(#ve-letter-shade)" opacity="0.5"/>
    <path class="letter-e" d="M674.43 563.52L553.4 563.52L553.4 432.48L674.43 432.48L674.43 460.87L581.97 460.87L581.97 483.80L656.41 483.80L656.41 512.20L581.97 512.20L581.97 535.13L674.43 535.13" fill="url(#ve-letter-shade)" opacity="0.5"/>
  </g>
</svg>
